# xmcd CD database file generated by Grip 2.96
# 
# Track frame offsets:
#       150
#       19262
#       34960
#       51562
#       75312
#       88910
#       111937
#       127160
#       142065
#       159447
#       177670
#       190615
# 
# Disc length: 2733 seconds
# 
# Revision: 0
# Processed by: cddbd v1.4PL0 Copyright (c) Steve Scherf et al.
# Submitted via: Grip 2.96
# 
DISCID=ac0aab0c
DTITLE=W. C. Clark - Lover's Plea
DYEAR=1900
DGENRE=
TTITLE0=Changing My Life with Your Love
TTITLE1=Lover's Plea
TTITLE2=Lonely No More
TTITLE3=Someday
TTITLE4=Pretty Little Mama
TTITLE5=Are You Here, Are You There?
TTITLE6=Everywhere I Go
TTITLE7=Sunshine Lady
TTITLE8=I'm Hooked on You
TTITLE9=Why I Got The Blues
TTITLE10=Do You Mean It? (2)
TTITLE11=That's a Good Idea
EXTD=
EXTT0=
EXTT1=
EXTT2=
EXTT3=
EXTT4=
EXTT5=
EXTT6=
EXTT7=
EXTT8=
EXTT9=
EXTT10=
EXTT11=
PLAYORDER=
